<svg fill="currentColor" xmlns="http://www.w3.org/2000/svg" viewBox="0 0 210 297"><path d="M92.265 70.702c-3.951.459-11.712 1.764-11.924 2.011-.141.106.6.106 1.552-.035 8.114-.988 12.983-1.13 19.58-.565 23.741 2.152 43.144 13.476 55.21 32.28 10.688 16.58 12.876 34.572 6.35 52.563-2.717 7.55-7.092 14.747-12.277 20.215-4.199 4.41-1.976 2.892 2.963-2.047 8.608-8.572 14.393-18.838 17.145-30.338 1.2-5.151 1.517-14.358.635-19.897-2.011-12.982-7.655-24.165-16.792-33.408-10.584-10.654-23.848-17.463-39.3-20.108-4.762-.847-18.309-1.2-23.142-.67z" style="stroke-width:.0352778"/><path d="M85.562 80.05C75.367 81.71 64.89 85.52 56 90.882c-16.898 10.125-31.115 29.422-34.96 47.52-.423 1.94-.705 3.739-.635 3.95.07.212.635-1.128 1.27-2.998 5.398-16.404 21.378-34.15 37.994-42.192 18.027-8.75 39.123-8.82 56.198-.212 14.323 7.232 25.259 20.779 29.033 35.983.918 3.704 1.27 11.113.706 15.029-1.658 11.183-8.22 21.837-17.357 28.151-6.173 4.198-13.758 6.562-21.131 6.527-7.267-.07-11.995-1.87-16.616-6.456-3.669-3.634-5.256-7.197-5.256-11.889 0-4.092 1.305-8.114 3.916-11.994 4.339-6.42 10.124-10.548 16.898-12.065 2.187-.494 5.644-.459 6.702.07 3.528 1.764 2.258 8.996-2.363 13.582-2.964 2.928-5.892 4.057-7.938 3.105-.811-.388-1.234.635-.6 1.41.353.46.847.53 2.223.354 3.634-.424 7.55-3.21 10.266-7.268 2.893-4.374 3.704-8.149 2.328-11.112-1.235-2.681-3.069-3.528-7.62-3.493-12.7.071-26.14 11.078-28.963 23.672-.811 3.704-.564 9.701.565 12.63 2.293 5.996 7.867 11.606 14.358 14.463 2.54 1.129 6.526 2.187 9.983 2.646 12.7 1.623 26.988-3.351 36.372-12.7 8.043-8.008 14.146-19.614 16.051-30.515.847-4.798.811-13.265 0-17.992-2.222-12.524-7.937-23.213-17.074-31.962-8.714-8.36-18.91-13.723-31.292-16.404-3.74-.811-5.186-.952-12.347-1.058-5.786-.07-8.996.035-11.148.388z" style="stroke-width:.0352778"/><path d="M97.662 113c-.282.177 1.27.353 3.881.494 15.17.635 27.764 9.56 30.833 21.767.67 2.716.776 8.36.176 11.535-1.623 8.679-6.95 17.04-13.793 21.696-.494.318-.706.6-.459.6.847.07 6.95-4.374 9.278-6.703 14.534-14.534 11.183-36.795-6.95-45.967-2.787-1.41-6.95-2.646-10.689-3.21-3.633-.564-11.536-.706-12.277-.212z" style="stroke-width:.0352778"/><path d="M91.983 119.068c-10.936 1.164-21.45 6.632-28.752 14.958-6.914 7.937-11.606 17.145-13.652 26.846-1.094 5.15-1.2 14.711-.177 20.073 2.188 11.642 7.55 21.908 15.734 30.163 10.901 10.971 24.413 17.18 40.817 18.732 16.369 1.517 36.618-4.692 51.188-15.734 11.536-8.748 22.048-23 26.493-35.948 1.412-4.127 3.07-11.042 2.717-11.43-.106-.105-.247.036-.353.318-3.175 10.724-8.82 20.038-17.674 29.21-15.17 15.734-32.597 23.248-52.211 22.507-17.251-.67-32.385-7.761-42.722-20.073-8.466-10.09-12.559-20.355-12.594-31.503 0-21.978 17.463-40.393 38.347-40.393 6.632 0 11.677 1.658 15.946 5.186 4.198 3.492 6.209 7.69 6.209 13.017 0 12.171-12.136 24.483-24.201 24.483-4.163 0-5.397-1.34-5.045-5.468.318-4.41 3.74-9.243 7.832-11.183 2.364-1.094 3.034-1.2 4.057-.565.6.389.776.353 1.058-.07.53-.812.424-1.058-.6-1.447-1.481-.564-4.374.247-6.808 1.835-5.433 3.634-8.89 10.301-7.973 15.31.141.706.812 1.87 1.482 2.646.988 1.094 1.623 1.447 3.245 1.8 4.022.81 9.525-.177 14.711-2.682 7.867-3.81 14.111-10.618 16.863-18.45.988-2.787 1.094-3.492 1.129-7.479 0-5.256-.741-8.078-3.034-11.641-4.763-7.374-13.123-12.065-23.248-13.053-3.845-.388-4.692-.388-8.784.035z" style="stroke-width:.0352778"/><path d="M55.823 131.556c-5.82 5.116-11.536 12.524-14.993 19.403-7.514 14.993-8.255 30.692-2.152 46.637 3.07 8.008 7.479 14.605 14.323 21.343 16.44 16.193 40.11 23.037 66.287 19.156 3.81-.564 7.302-1.27 7.126-1.446-.07-.07-1.835.106-3.987.388-5.044.67-14.393.67-19.896 0-13.441-1.693-24.73-5.962-34.855-13.23-14.181-10.194-24.659-26.846-27.058-43.038-.811-5.398-.564-14.464.53-19.544 2.328-10.971 7.76-21.52 14.887-28.963 1.764-1.834 3.104-3.351 2.998-3.351-.07 0-1.517 1.199-3.21 2.645z" style="stroke-width:.0352778"/><path d="M85.386 141.999c-1.552 1.023-3.634 2.575-4.692 3.457-4.022 3.422-7.867 9.313-9.56 14.675-1.059 3.352-1.341 9.631-.6 13.124 2.328 10.9 10.513 19.014 22.401 22.19 2.858.776 4.48.952 9.702 1.093 4.092.141 6.244.07 6.244-.141 0-.212-1.694-.459-4.128-.564-14.076-.6-26.352-8.855-29.915-20.144-3.634-11.43 1.693-26.282 12.312-34.22 2.54-1.87 1.446-1.552-1.764.53z" style="stroke-width:.0352778"/></svg>